<?xml version="1.0" encoding="UTF-8"?>
<svg xmlns:xlink="http://www.w3.org/1999/xlink" width="395px" height="134px" viewBox="0 0 395 134" version="1.1"
     xmlns="http://www.w3.org/2000/svg">
  <!-- Generator: Sketch 42 (36781) - http://www.bohemiancoding.com/sketch -->
  <title>16tons-lettering</title>
  <desc>Created with Sketch.</desc>
  <defs></defs>
  <g id="Page-1" stroke="none" stroke-width="1" fill="none" fill-rule="evenodd">
    <g id="header-v2-copy" transform="translate(-443.000000, -110.000000)" fill="#FEFEFE">
      <g id="center" transform="translate(134.000000, 110.000000)">
        <g id="16tons-lettering" transform="translate(309.000000, 0.000000)">
          <path
            d="M43.2906511,38.0355563 C44.8472828,37.1648819 45.9421306,38.8601458 45.9421306,38.8601458 L47.3896134,37.6783987 C46.7850962,35.5535582 45.5609489,33.1900641 42.3251028,33.1900641 C37.3814956,33.1900641 35.7392239,38.6247839 35.7392239,40.9866322 L35.7459408,79.9497223 L29.2255512,79.9497223 L29.2221928,59.361318 C29.2557771,57.7944333 29.2154759,56.6209157 31.1197051,55.2465998 L32.9769162,53.9512865 L19.1301142,53.9512865 L20.9856462,55.2465998 C22.8915545,56.6209157 22.8495741,57.7944333 22.8848376,59.361318 L22.8865169,79.9497223 L16.3694858,79.9497223 L16.3627689,42.0811472 C16.3963532,40.5142625 16.2922419,39.5892739 17.9445889,37.966429 L19.4861077,36.6727616 L6.26733191,36.6727616 L8.12622226,38.2758558 C9.78024845,39.8954089 10.0220553,44.4248908 10.0220553,48.2433493 L9.96328282,82.2226926 C9.96664124,83.9953132 8.55945957,88.365144 5.34880164,88.365144 C2.48070344,88.365144 0.000503764321,87.1669381 0.000503764321,87.1669381 L2.72922717,89.6275396 C3.33206514,91.7523801 0.86865761,93.0789652 4.12633355,93.7587167 C11.311692,95.25812 16.2049227,87.3710281 16.2015643,83.8702258 L16.3694858,83.282644 L45.8396985,83.282644 L43.9824874,81.6779039 C42.1840488,79.9135127 42.0849751,76.3880221 42.0849751,73.2509609 C42.0849751,73.2509609 42.2058786,42.2062347 42.2058786,41.2252859 C42.2058786,39.4526652 42.4476854,38.5046341 43.2906511,38.0355563"
            id="Fill-13"></path>
          <path
            d="M338.181355,72.7790851 C337.094903,77.1522076 334.791021,77.5784924 334.181466,77.642682 C333.763341,77.7282682 333.182333,77.5916595 332.460271,77.0287661 C331.909489,76.7193392 331.420837,76.0247748 330.784415,74.9072173 C330.205086,73.6003828 329.657662,71.9265154 329.563626,69.9712013 C328.97926,66.1510969 329.514929,62.8000704 330.749152,60.1880472 C331.744926,57.7257998 333.022808,57.2452007 334.057204,57.0970709 C334.263747,57.1480934 334.866585,57.1036544 335.573535,57.6583184 C336.112562,58.1784188 336.633119,58.6688932 337.247711,59.7798672 C338.183034,61.5656549 338.461783,63.5654079 338.644818,64.9446615 C338.987377,67.7426699 338.780834,70.3892567 338.181355,72.7790851 L338.181355,72.7790851 Z M392.957328,73.9641239 C392.933819,74.3459698 392.844821,75.8552484 392.844821,75.8552484 L392.831387,76.0560467 C392.821312,76.2354484 392.989233,76.6535038 392.775973,76.9974942 C392.320906,77.8731062 391.914536,77.9833807 391.533355,77.9175452 C391.138739,77.8484179 390.740765,77.7809366 390.576202,77.3678188 C390.374697,77.1505617 390.210134,76.7357981 390.233643,76.3539523 C390.243718,76.1745506 390.255472,75.9902112 390.059004,75.7564952 L390.090909,75.1936017 L390.347829,54.2727282 L385.004569,54.116369 L384.747649,65.112542 L384.737574,65.2935896 L378.712553,65.142168 L378.502651,65.1043126 L378.512726,64.9249109 L378.672251,59.0260508 C378.578215,57.488792 377.874625,55.8429047 376.934264,54.9129784 C376.193731,53.8497352 375.040111,53.2819041 373.856264,53.2588617 C373.050242,53.3000089 371.64306,53.4218045 370.368536,54.9228537 C369.730435,55.7688398 368.536513,57.9924335 368.398818,60.2604662 L368.239292,61.0044073 C368.224179,61.0011155 368.20235,60.9978238 368.18052,60.9928861 L368.004202,62.1104436 L367.973976,62.2388228 C367.977335,62.2437604 367.977335,62.2388228 367.980693,62.2437604 L365.890071,75.160684 C365.890071,75.160684 365.982428,75.9375428 365.74398,76.2716579 C365.416533,77.160437 364.805299,77.2312102 364.618906,77.190063 C364.200782,77.2822327 363.829675,77.015599 363.668471,76.7769453 C363.320873,76.3111592 363.159669,75.9062709 363.184857,75.7071186 L363.278893,74.9763446 L363.139518,74.5533516 L363.774261,49.3712759 C363.940503,48.0611496 364.18231,46.1930675 364.697829,45.3454355 C365.233499,44.3216936 366.039521,42.3943596 371.606117,39.7839823 C372.192163,39.9140074 370.027656,36.1761974 368.581852,36.8756995 C363.557643,39.3083209 361.984219,41.206029 360.533377,43.2880764 C358.331927,46.2523194 358.200949,50.4526238 358.24125,51.7890843 L358.004481,64.4015187 L357.980972,64.5957334 L357.7929,64.5562321 L352.74686,64.4969802 L352.540317,64.4508953 L352.560467,64.2698477 L352.723351,58.3611123 C352.70488,57.0131306 351.920687,55.3079914 351.039099,54.3369179 C350.154153,53.3658443 349.013967,52.7453448 347.83012,52.6712799 C347.222245,52.7190106 345.773083,52.9938738 344.349109,54.5805092 C343.605217,55.4841013 342.035152,58.599766 341.365145,61.3204177 C341.365145,61.3171259 341.361787,61.3138341 341.361787,61.3056047 C341.227449,61.855331 341.101508,62.4165786 340.978926,62.9860556 C340.396238,60.3345312 339.576782,57.8229072 338.42652,56.1885411 C337.776664,55.2767195 337.081469,54.5377161 336.171335,53.9353214 C335.138618,52.9082877 333.771737,52.5856938 332.379669,52.4457933 C329.968317,52.6581128 327.457891,54.3945239 325.7283,57.6714855 C324.722451,59.4111884 323.990314,61.4158791 323.622566,63.5736374 L323.523492,64.1891992 C323.244742,66.077032 323.224592,68.0685556 323.521813,70.0913511 C323.766978,73.6316547 324.923957,76.431309 326.566228,78.753656 C328.364667,81.2949059 330.247066,82.126079 331.622343,82.2445829 C332.011921,82.3351067 332.408215,82.4305682 332.621476,82.2923136 C335.254484,82.3367526 337.583554,80.3765008 339.309787,77.0995392 C339.880719,76.080735 340.248467,74.9928035 340.426464,73.8867672 L340.612857,73.9279144 C340.646441,73.7304079 340.646441,73.7304079 340.706893,73.3732504 L341.272788,69.8214256 C341.556575,68.0553885 341.959587,65.9947376 342.372674,64.1036131 C342.376032,64.1069049 342.379391,64.1085508 342.379391,64.1151343 C342.859646,61.5771761 344.426353,58.5141798 344.728611,57.9331816 C344.965381,57.6155254 345.408693,57.329141 345.803309,57.4130812 C345.989701,57.4558743 346.384317,57.5414604 346.574068,57.7636552 C346.941816,58.0516855 347.059361,58.6491426 347.197057,59.067198 C347.197057,59.067198 347.413675,67.8858621 347.558088,75.8799367 C347.700821,83.791717 346.773895,108.717034 346.773895,108.717034 C346.605973,110.027161 346.189528,111.673048 345.16017,112.701727 C344.431391,113.704073 343.356693,114.222527 342.379391,114.008562 C341.957908,114.118836 341.002435,113.705719 340.332428,112.594745 C339.798438,112.091103 339.524726,111.070653 339.267806,110.053495 L337.281296,111.353746 C337.536536,112.555243 337.949623,113.988811 338.83289,114.963177 C339.852173,116.332555 341.365145,117.239439 342.945286,117.400736 C345.348242,117.540636 347.264225,116.612356 348.879629,115.052054 C351.638579,112.408759 351.960988,108.251248 352.12723,106.942768 L352.476507,68.0899521 L357.732448,68.17883 L357.918841,68.2183313 L357.895332,68.3993789 L357.732448,74.3245732 L357.710618,74.5039749 C357.747561,75.861832 357.695505,77.7694153 358.671129,79.5157018 C359.500661,80.8620376 361.013633,81.7656297 362.390589,81.8660288 C363.811204,81.8084228 365.120991,81.1385467 366.056314,79.9979468 C367.30397,78.1463235 367.377855,76.0609843 367.545777,74.7459204 C367.545777,74.7459204 369.465119,63.214834 369.735472,61.5113406 C369.856376,61.1031605 369.980638,60.7180229 369.980638,60.7180229 C370.037731,59.7946801 370.743001,58.6014118 370.753076,58.4253019 C370.966336,58.0747279 371.374386,57.9644535 371.784114,57.8294907 C372.183767,57.9002639 372.360084,58.1356257 372.556553,58.3479452 C372.9243,58.6178707 373.109014,59.0128837 373.073751,59.5971737 L372.783246,81.0973995 L378.338088,81.2949059 L378.495934,68.7384317 L378.509368,68.5392794 L378.699119,68.5689053 L384.522634,68.8865616 L384.72414,68.7219729 L384.709027,68.9194793 L384.74597,75.0339507 C384.656972,76.5415834 384.542785,78.431062 385.625878,80.1411389 C386.529296,81.6356046 388.067456,82.4733613 389.462883,82.5095708 C390.853273,82.5721145 392.085816,81.8314652 393.1454,80.6760523 C394.246965,78.9561001 394.369548,76.8888656 394.461904,75.3828788 L394.540827,74.0562936 L392.957328,73.9641239 Z"
            id="Fill-15"></path>
          <path
            d="M295.781191,77.7055549 C295.425197,78.464309 294.654438,78.8478007 293.895433,79.0535366 C293.700644,79.2362301 293.509214,79.2362301 293.322821,79.2362301 C292.133937,79.2362301 291.510949,78.464309 291.302726,78.0758796 C290.241463,76.5435585 290.483269,74.0516851 290.58906,72.1342264 L290.980317,68.4984614 C291.749397,68.1116778 292.508402,67.9092337 293.309387,68.1116778 C294.290048,68.1116778 295.101109,68.4984614 295.725777,69.2555695 C296.546913,70.2151218 296.817266,71.3754724 296.886114,72.7069952 C296.993584,74.6244539 296.479744,76.3592191 295.781191,77.7055549 M234.494903,75.5922356 C233.912215,76.9105914 233.121305,77.8273506 232.142323,78.1647575 L231.955931,78.1548822 C231.369885,78.1252562 230.370752,77.8915402 229.594955,75.7337819 C229.008909,73.789989 228.610936,71.8511338 228.609256,70.7138257 C228.397675,69.5386621 228.204566,63.9837925 230.342206,59.8740119 C230.948402,58.5573021 231.531089,58.0158051 232.117135,57.8610917 C232.323679,57.872613 232.323679,57.872613 232.51343,57.8824883 C233.680484,57.7376502 234.473073,59.1201955 234.871047,60.0994985 C235.457093,61.8605979 235.645165,63.3995025 235.861783,65.3268365 C236.049855,68.0063411 235.863463,71.8280914 234.494903,75.5922356 M188.786687,73.9874955 C187.681764,78.2635107 186.234281,79.0436613 185.44505,78.9481998 L184.674291,78.8527384 C184.086566,78.5943341 183.742327,78.1631116 183.198261,77.3368762 C182.5165,76.0876477 182.061433,74.3133812 181.856569,71.7935277 C181.63995,69.4596595 181.539197,63.1048887 182.810363,59.4230388 C183.367862,57.3689714 184.444238,56.1526607 185.626405,56.1148053 C185.826232,55.9568001 186.209093,56.1888702 186.415636,56.2119127 C186.98321,56.4719629 187.520559,57.1286719 188.029361,58.1524138 C188.719518,59.5645851 189.110775,62.1288775 189.181302,63.6727198 C189.705217,67.1916268 189.414713,70.9969183 188.786687,73.9874955 M163.375135,75.5922356 C162.794127,76.9105914 162.001538,77.8273506 161.022556,78.1647575 L160.837842,78.1548822 C160.250117,78.1252562 159.245947,77.8915402 158.473508,75.7337819 C157.889142,73.789989 157.492847,71.8511338 157.489489,70.7138257 C157.279587,69.5386621 157.084798,63.9837925 159.224117,59.8740119 C159.828634,58.5573021 160.413001,58.0158051 160.994009,57.8610917 C161.203911,57.872613 161.203911,57.872613 161.391983,57.8824883 C162.559037,57.7376502 163.353305,59.1201955 163.752958,60.0994985 C164.337325,61.8605979 164.527076,63.3995025 164.736978,65.3268365 C164.930088,68.0063411 164.747053,71.8280914 163.375135,75.5922356 M53.5931352,59.7308197 C54.452893,56.8027862 55.8634331,56.2612893 56.5619863,56.2020373 C57.0019404,56.236601 57.5224969,56.5147559 57.6081368,56.7665767 L57.7928504,56.8653299 C58.0380157,57.2274251 58.2143332,57.7524632 58.3940092,58.6922648 C58.4964412,60.2278777 58.1438062,62.1815459 57.4469322,63.5130687 C57.0120157,64.3508254 55.5242318,66.3242442 52.8912236,66.6402546 L52.7249813,66.5497308 L52.7249813,65.6839941 C52.8072628,63.3830436 53.0725787,61.5906724 53.5931352,59.7308197 M219.973057,79.5324898 C220.518801,79.0683496 221.01249,78.5383739 221.363446,77.8849566 C222.270222,76.7427108 222.624536,75.8078469 222.918399,74.6474963 C223.318052,76.3789698 223.905777,78.1417151 224.698366,79.3218162 C225.867099,81.6869563 227.830101,82.9230177 229.791423,83.0217709 C230.585692,82.8802246 231.376602,82.7123441 232.147361,82.1840143 C233.524317,81.4960334 234.688012,80.0048595 235.663636,78.3408674 L235.663636,78.1581739 L235.873538,78.3507427 C236.254719,81.0615191 238.216042,82.6909476 240.382228,82.7979302 C241.759184,82.6646134 243.11599,81.9749866 244.094972,80.6796733 C245.280497,78.8231124 245.44506,77.6512406 245.854788,75.0622599 C246.183914,72.9950255 246.558379,70.4834014 246.699433,69.5501833 C246.711188,69.5617046 246.7263,69.5781634 246.746451,69.5913305 L247.940373,60.8269807 C247.900071,59.8641366 248.271178,59.2765548 248.264461,59.0938613 C248.440778,58.9144596 248.830356,58.7103696 249.226651,58.7169531 C249.622945,58.7251826 249.807659,58.7251826 250.025957,58.9309185 C250.437364,59.2995972 250.452477,59.6896725 250.477665,60.2591495 L249.622945,81.9404229 L255.095505,81.793939 L256.086242,63.4027943 L256.613515,62.0613961 C257.149184,60.9257339 258.789777,57.8610917 259.948435,57.6882736 C260.136507,57.6915653 260.541197,57.8824883 260.756137,58.0865783 C260.959322,58.4569029 261.162507,58.8453323 261.187695,59.419747 L260.178487,81.8498991 C260.178487,81.8498991 264.289204,81.5026169 268.012022,81.9321935 C266.198471,80.3817677 266.018795,76.1584209 266.018795,76.1584209 L266.641783,63.3106246 L267.372242,61.7898247 C267.704726,60.8335642 269.338602,57.5878744 270.525806,57.6010415 C270.900271,57.6043333 271.118569,57.8100692 271.50143,57.9993463 C271.726445,58.3894216 271.931309,58.7762051 271.951459,59.3522656 L271.103456,76.2127351 C270.995986,78.1301938 271.67271,80.2385755 272.885102,81.4153849 C273.711276,82.1988272 274.703692,82.5740896 275.684353,82.5856108 C277.246022,82.6053614 278.779145,81.8630662 279.694317,80.3258075 C280.609489,78.8050076 281.108215,76.8924866 281.220723,74.6096409 C281.220723,74.6096409 281.54649,72.9390653 281.793335,70.723701 C281.820202,70.7418058 281.838674,70.7730776 281.863862,70.7895365 C282.280307,66.4032468 283.714356,59.4065799 283.840297,59.273263 C284.006539,58.9078761 284.562359,58.3153566 284.958654,58.3153566 C285.35159,58.3153566 285.759639,58.5178008 285.969541,58.9078761 C286.172726,59.273263 286.196235,59.6616924 286.058539,60.6195989 L285.185348,70.0324283 C284.931787,72.7069952 284.599302,77.3187714 287.301158,80.3817677 C289.175161,82.2992264 291.341348,82.6876558 293.297633,82.6876558 L294.091901,82.6876558 C296.444481,82.6876558 299.131224,81.9321935 300.758382,79.2362301 C302.027868,77.7055549 302.6878,75.1955768 302.575292,73.0921328 C302.647499,70.6035512 301.72561,68.1116778 300.268052,66.5810027 C298.614026,64.8445916 296.820625,64.4594539 295.072562,64.4594539 C294.488196,64.4594539 293.700644,64.4594539 293.126353,64.6618981 C292.540307,64.6618981 291.969374,64.8445916 291.376611,65.0338686 L291.368215,64.8445916 L291.714134,60.0534136 C291.819924,58.5178008 291.912281,56.7846814 290.664625,55.2540063 C289.60504,53.7233311 288.223047,53.5175952 287.635322,53.5175952 C286.448117,53.5175952 284.920032,54.1101146 283.981351,54.863931 C282.453266,56.5772996 281.074631,63.6167596 280.517132,69.1452951 C280.495302,69.1354197 280.483548,69.1189609 280.461718,69.1074397 C280.07214,72.7399129 279.541508,75.9428096 278.970575,77.0735342 C278.799296,77.4586718 278.606186,77.8224129 278.025178,77.8174753 C277.627204,77.8141835 277.434094,77.6265523 277.217476,77.4405671 C276.6096,76.8447559 276.790955,76.2752789 276.760729,75.4984201 L276.750654,75.3157266 L277.42234,59.2255323 C277.560035,57.492413 277.099931,55.9568001 276.250248,54.6022349 C275.017705,53.0583926 273.635711,52.8427814 272.864952,52.8312602 C271.677747,52.8180931 270.535882,53.3990913 269.392336,54.5298158 C268.450297,55.2918617 267.543521,56.9970009 266.813063,57.9499697 C266.566219,56.5986962 266.124585,55.4515127 265.291695,54.483731 C264.480634,53.5143034 263.266562,52.9333052 262.101188,52.9184922 C260.537839,52.9036792 259.212939,54.0327579 258.452255,54.7964496 C257.720117,55.7494183 256.799908,57.0858788 256.064412,58.4075263 C255.827643,57.2603429 255.176107,56.1098677 254.559836,55.3280712 C253.750454,54.3602895 252.742926,53.7792912 251.371008,53.7644783 C250.786641,53.7562488 249.236726,54.1249276 247.930297,55.6424357 C247.17633,56.5970503 246.472739,58.119496 246.173839,60.4188006 C246.173839,60.4188006 245.742281,63.8389544 245.181423,68.2384112 C245.184782,68.2449947 245.191499,68.2482865 245.198215,68.2565159 C244.850618,72.0058472 243.977427,75.9411637 243.69196,76.8266511 C243.317495,77.7664528 242.731449,77.7368268 242.524906,77.9096449 C242.128611,77.8898943 241.752467,77.689096 241.542566,77.2907913 C241.354494,77.0965766 241.149629,76.6999178 241.149629,76.3131343 L241.149629,75.9263507 L241.146271,75.3552279 L241.915351,56.6168009 C241.910314,55.2754028 241.329305,54.2862245 241.117724,53.8895657 C240.533358,53.1044774 239.948991,52.8724073 239.158081,52.8312602 C238.383963,52.7966965 237.802955,53.1505623 237.200117,53.8961492 C236.425999,54.8145543 236.221135,55.9485707 236.221135,56.7204918 L236.222814,57.2949065 L236.034742,57.1023377 C235.636769,55.9172988 234.866009,55.125627 234.070062,54.3125587 C233.487374,53.8961492 232.903008,53.4780939 232.110418,53.2526073 C231.714124,53.0501632 231.33798,53.0337043 230.733463,53.0024324 C228.773819,53.0913103 226.815855,54.337247 225.250827,56.9278736 C223.880589,59.3637868 222.903286,62.1897753 222.532179,65.4140686 C222.532179,65.4140686 221.999868,70.5113815 221.16194,74.3380695 C220.580932,75.7782209 219.202297,77.4191705 218.441613,77.3237091 C218.048677,77.2825619 217.684287,77.0422623 217.48614,76.8365264 C217.319898,76.4299923 217.121751,76.2275481 217.14526,75.8391187 C217.157014,75.6580711 217.157014,75.6580711 217.16541,75.455627 L217.20907,74.7034565 L218.181335,40.9298491 C218.251862,39.6065557 218.735476,37.7368277 219.185505,36.8282979 C219.832003,35.732137 220.854644,35.0820115 221.833626,35.1857024 C222.228242,35.2268496 223.205544,35.3321864 223.944399,36.3674495 C224.288638,36.973136 224.837741,37.9919403 224.970399,38.9630138 L227.029116,37.4455057 C226.703348,36.0629603 226.184471,34.8631085 225.260903,33.8080947 C224.157659,32.5506368 222.817646,31.8149252 221.037679,31.83303 C218.869813,31.9959728 216.849718,32.9258991 215.356896,34.8746297 C212.841433,37.878374 212.618098,41.8959849 212.530778,43.4167848 L211.75834,70.2974162 L210.629908,72.8534792 C208.861695,76.3213637 208.032163,76.9879481 207.259724,76.9105914 C206.86343,76.8661524 206.280742,76.8101922 205.916353,76.199568 C205.347099,75.5642555 205.400834,74.6129327 205.432739,74.0434557 L206.047332,59.712715 C206.186706,57.2405922 205.105292,55.5963508 204.552831,54.9445794 C203.815656,53.9093163 202.473963,53.1966471 201.296834,53.2789415 C200.099554,53.3349017 198.888841,53.9850271 197.859482,54.8375968 C197.498451,55.4943058 196.776389,56.6826364 196.274304,57.8446329 C196.259191,57.8051316 196.252474,57.7672762 196.237361,57.7294208 C195.767181,59.083986 194.841934,60.7397486 194.423809,62.4020948 C194.304585,61.2219936 194.190399,60.2459824 194.089646,59.0889237 C193.401168,52.4625814 191.050268,47.0015273 187.438278,42.8917467 C183.263751,37.9359801 177.732418,34.8137319 171.798075,33.3604134 C169.490834,32.7876446 167.123142,32.474926 164.755449,32.3811104 C155.593656,32.2033546 146.485597,35.9938331 141.696477,43.925364 C141.651138,43.9780324 141.624271,44.0372843 141.578932,44.0932445 L141.679685,44.1475588 L144.645178,45.4362885 C146.561161,41.0763331 155.249417,38.3128883 164.286949,38.4791229 C166.65632,38.5268536 169.02905,38.7786744 171.343008,39.2740865 C178.054827,40.7191755 184.089924,44.1492046 186.900929,49.9377903 C187.567577,51.3680663 187.874873,52.5514593 188.150264,54.118344 L188.135152,54.322434 C187.770762,53.8895657 187.203188,53.6114107 186.635613,53.3579441 C186.046209,53.1011857 185.463521,53.0287666 184.6978,52.9333052 C182.299882,53.2065225 179.791135,54.9988937 178.184127,57.8857801 C177.013715,60.2393989 175.761021,63.7188046 175.67706,67.5504303 C175.645155,67.7611039 175.609891,67.9981116 175.572949,68.2367653 C175.557836,68.2252441 175.544402,68.2137229 175.530968,68.2038475 C175.500742,68.5824016 175.455404,68.956018 175.405027,69.321405 C175.351292,69.657166 175.297557,70.00774 175.238785,70.3616058 C174.674569,73.3735795 173.576363,75.9033083 173.057485,76.6538329 C172.417705,77.5854051 171.613361,77.7368268 171.405138,77.9096449 C171.010523,77.8898943 170.634379,77.689096 170.424477,77.2907913 C170.236405,77.0965766 170.029862,76.6999178 170.029862,76.3131343 L170.029862,75.9263507 L170.029862,75.3552279 L170.793904,56.6168009 C170.793904,55.2754028 170.211217,54.2862245 169.997957,53.8895657 C169.41359,53.1044774 168.829224,52.8724073 168.034955,52.8312602 C167.267554,52.7966965 166.683188,53.1505623 166.07867,53.8961492 C165.307911,54.8145543 165.104726,55.9485707 165.104726,56.7204918 L165.104726,57.2949065 L164.914975,57.1023377 C164.520359,55.9172988 163.746242,55.125627 162.951973,54.3125587 C162.369286,53.8961492 161.781561,53.4780939 160.990651,53.2526073 C160.592677,53.0501632 160.218212,53.0337043 159.613695,53.0024324 C157.652373,53.0913103 155.694409,54.337247 154.134418,56.9278736 C152.7625,59.3637868 151.775122,62.0268325 151.414091,65.4140686 C150.873384,70.4801097 149.817158,72.3432541 148.833138,75.630091 C148.82978,75.6251534 148.82978,75.6218616 148.826422,75.6169239 C148.624916,76.4645559 148.099322,77.3434597 148.077492,77.4274 C147.652651,78.2750319 146.97089,78.1762787 146.604821,78.0643584 C146.359656,78.1729869 145.993587,78.0594207 145.696366,77.5705922 C145.536841,77.3319385 145.392428,77.0998684 145.481427,76.7344814 C145.347089,76.4810148 145.38907,76.3065507 145.432729,76.1320867 L145.365561,75.5066495 L146.074189,59.0675271 C146.074189,59.0675271 146.626651,55.9024859 148.460353,54.2993916 C143.565443,54.1561994 140.608346,54.4327085 140.608346,54.4327085 L140.185184,65.466737 L137.621024,65.4634452 L133.812566,65.451924 L133.629531,65.392672 L133.671512,65.2214997 L134.045976,59.4477271 C134.010713,57.872613 133.18286,56.2398928 132.405384,55.2029838 C131.624549,54.1891172 130.507872,53.636099 129.280366,53.650912 C128.455872,53.6031813 126.937862,53.9060246 125.740582,55.4992435 C125.134386,56.2876235 124.160441,57.7623385 124.022746,60.0534136 L122.200798,69.8497348 C122.212553,69.8579643 122.220949,69.8661937 122.234382,69.8777149 L121.260438,76.039917 C121.087479,76.1172737 121.079083,76.7361273 120.899407,77.266103 C120.778503,77.6249064 120.415793,78.0808172 119.801201,78.0429618 C119.540922,78.1548822 119.184929,78.0166276 119.045554,77.7499939 C118.439358,77.1113896 118.420886,76.5040572 118.420886,75.9033083 C118.479659,75.732136 118.543469,75.5445049 118.543469,75.5445049 L119.166458,59.4905202 C119.13959,57.6586476 118.768484,56.3156036 117.760955,54.921537 C116.57543,53.4583432 115.20687,53.1242281 114.390772,53.0254749 C113.097777,53.1242281 112.056664,53.7332064 111.055852,54.7602401 C110.137322,55.6012885 108.975305,57.1681732 108.434598,58.1589973 C108.043341,56.8077239 107.591633,55.6276227 106.839345,54.7371976 C105.974549,53.593306 104.862909,53.1637294 103.606857,53.0863727 C102.114035,53.1127069 100.896605,54.2483691 99.973037,55.1108141 C99.2341827,56.0259274 98.4315182,57.1286719 97.7682285,58.4815913 L97.7027391,58.6692224 L97.5717604,58.4075263 C97.2527097,57.4891212 96.801001,56.3106659 96.2535771,55.4794928 C95.3014625,54.513357 94.2485951,53.914254 93.0160517,53.8434808 C92.1428602,53.8961492 90.7894134,54.1858254 89.368798,55.8432339 C88.8868635,56.6645317 87.9616164,58.1277255 87.7869781,60.4829902 L87.7987326,61.6499243 C87.8037702,61.654862 87.8104871,61.6581537 87.8205624,61.6581537 L87.7718651,62.808629 C86.1514232,71.131881 83.6594691,78.6453566 77.9199142,79.0881003 C76.3616033,79.2280007 75.4800157,78.2437601 75.0719666,77.6594701 C74.4758455,76.9846563 73.9771188,75.5527343 73.602654,72.7316835 C73.3222252,69.7279392 73.1291155,65.3679837 73.4414494,62.4234913 C73.8696491,60.3332145 74.299528,58.6856813 75.0954756,57.7787974 C75.8796687,56.8916641 76.7108799,56.4127109 77.5857506,56.3946062 C78.2037015,56.440691 78.8149355,56.5048806 79.4899797,56.9887715 C79.8409355,57.1352554 80.3295869,57.564832 80.5445264,58.047077 L80.6687882,58.3186484 C79.7149944,58.5260302 79.0634592,59.0741107 78.5361859,59.8789496 C77.9451025,60.8483772 77.6277309,62.1535658 77.7553512,63.4307744 C77.9484609,64.5401024 78.3061336,65.3021482 78.709145,65.88973 C79.4160943,66.7999057 80.3984347,67.0221005 81.0869126,66.9003048 C82.3211352,67.0105792 83.1708177,65.9539196 83.7182416,65.158956 C84.0691974,64.2866358 84.5612072,63.0538662 84.1531581,60.8269807 C84.0137833,58.4980501 83.0364805,56.6628858 81.7334101,55.0811881 C80.252343,53.4254255 78.6184674,52.730861 76.171852,52.9119086 C73.5774658,53.0287666 70.868893,54.9561007 68.9848144,58.0602441 C68.1133021,59.7390492 67.2669781,61.8474308 66.9009093,64.3541171 C66.4542383,68.3272891 65.9756622,71.4199113 65.3644282,73.8097397 C65.3577113,73.7998644 65.3425984,73.789989 65.3342023,73.7768219 C63.6566671,78.3244085 60.8691712,79.1539357 57.7878128,79.3530881 C55.8869421,79.3530881 55.1850304,78.5795211 54.5872301,78.0297947 C53.7845656,76.959968 53.1666147,75.1264495 52.9012989,73.0690904 C52.8190173,72.3630047 52.8257342,70.6578655 52.8139797,69.8118794 L52.7216229,69.5320786 L52.8039044,69.3707816 C55.0859568,69.3033003 57.3713676,68.824347 59.2940681,67.7183108 C60.9464151,66.6945689 62.2813905,65.4766123 63.0723005,63.9673336 C63.8531352,62.4778056 64.1872989,60.9718187 63.9253414,59.3242856 C63.7473447,57.5203931 63.0437538,55.8432339 61.8196065,54.7536565 C61.3796524,54.3125587 60.7566638,53.76777 59.708834,53.2065225 C58.9162448,52.9843277 57.860019,52.8510108 56.5569486,52.7851753 C54.7030959,52.8592402 51.1230108,53.7068722 48.4077211,58.4404441 C46.5723398,61.9396005 45.7025067,66.620504 46.2314592,71.1829035 C46.4111352,72.9917337 46.9451254,74.9865491 47.5697931,76.3937827 C48.0114265,77.7022631 48.6276982,78.6700449 49.4975313,79.5703452 C50.3774396,80.9084516 52.8559601,82.5724437 56.1707293,82.7304488 C60.5988177,82.6432168 64.8002121,80.9249105 66.8169486,75.4720859 C66.8337408,75.4868988 66.8454953,75.5066495 66.8606082,75.5231084 C67.0134167,74.8960253 67.1561499,74.2310868 67.2871286,73.5348765 C67.869816,75.8325352 68.6741597,77.5919887 69.7841205,79.0930379 C71.1896229,80.9364317 73.3406966,83.0744393 76.8200288,82.91808 C85.6879601,82.1774307 88.2118193,72.4255485 89.4090992,62.4778056 L89.4342874,62.2753615 C89.4376458,62.2770074 89.4376458,62.2770074 89.4410043,62.2770074 L89.5400779,60.9421928 C89.4645133,59.9069297 89.8255444,59.4460812 89.8809584,59.2765548 C90.2033676,58.9918163 90.503947,58.7004943 90.8817702,58.8453323 C91.1185394,58.748225 91.4963627,58.8881254 91.6390959,59.1383003 C91.9312792,59.4658319 92.0118815,59.8805955 92.0689748,60.3085262 L91.2260092,94.3866227 C91.2226507,95.5831828 90.8733741,97.2685714 90.3108373,98.2511661 C89.7079993,99.4312673 88.8482416,100.106081 87.7920157,100.106081 C87.35542,100.134061 86.3596458,99.9628889 85.6728471,98.8815409 C85.2396098,98.3120639 84.724091,97.317948 84.4755673,96.1970987 L82.6956,97.7343575 C82.8887097,99.0099201 83.4529257,100.44678 84.3832105,101.407978 C85.6342252,102.680249 86.9456917,103.182244 88.6114723,103.229975 C90.9203921,103.323791 93.0160517,102.119001 94.240199,100.364485 C96.7640583,97.3113644 96.9252628,93.1571449 96.9739601,91.7614325 L97.741361,63.5031934 L98.4012923,62.1535658 C98.7656818,61.0919685 100.298805,57.8462788 101.529669,57.9203437 L102.285315,58.2100198 C102.599328,58.5424891 102.857927,59.0296717 102.85121,59.6485253 L101.978019,82.0293009 C101.978019,82.0293009 106.260016,81.8581286 110.765348,82.2037649 C107.909004,81.2952351 107.932513,76.2950295 107.932513,76.2950295 L108.283469,63.5394029 L108.950117,62.1897753 C109.309469,61.128178 111.023947,57.9565532 112.075135,57.9565532 C112.510052,57.930219 112.689728,57.9993463 113.008778,58.3153566 C113.322791,58.6494718 113.403394,59.0658812 113.462166,59.4938119 L112.970156,76.4151793 C112.918101,78.405057 113.478958,80.4426655 114.751803,81.7248117 C115.561184,82.4440645 116.494827,82.8045138 117.551053,82.8045138 C119.220192,82.8473068 120.760032,82.0293009 121.497207,80.5134387 C122.222628,79.573637 122.650827,77.7253056 122.694487,76.3509897 L123.715449,71.0397114 C123.727204,71.0462949 123.733921,71.0561702 123.747355,71.0627538 L125.733865,60.5850352 C125.770808,59.6156076 126.084821,59.1300708 126.128481,58.9556068 C126.422343,58.6494718 126.696055,58.3367532 127.080595,58.4569029 C127.30561,58.3416908 127.649849,58.6346588 127.836242,58.6922648 C128.131783,59.1810934 128.24597,59.6123158 128.338327,60.0386006 L127.39125,81.7017693 L133.659757,81.7692507 L135.825944,81.7741883 C135.825944,81.7741883 134.840245,81.3215693 134.104749,79.9439616 C133.636248,79.0683496 133.260104,77.8240588 133.29033,76.08271 C133.386045,73.1678436 133.540533,69.1008561 133.540533,69.1008561 L136.712569,69.2094847 L139.886284,69.3000085 L140.072677,69.3559686 L139.834228,75.3766244 C139.683099,76.8957784 139.627685,78.8395713 140.641931,80.5331893 C141.536952,81.9799242 142.934058,82.9954367 144.408409,82.8670575 C145.822307,82.9131423 147.37726,82.4490021 148.305865,81.16521 C148.599728,80.7817183 149.152189,79.8616673 149.587106,78.7441098 C150.085832,77.5919887 151.021155,75.791388 151.80199,74.6474963 C152.198284,76.3789698 152.78433,78.1417151 153.576919,79.3218162 C154.754048,81.6869563 156.715371,82.9230177 158.671656,83.0217709 C159.462566,82.8802246 160.256834,82.7123441 161.027593,82.1840143 C162.401191,81.4960334 163.568245,80.0048595 164.543868,78.3408674 L164.543868,78.1581739 L164.755449,78.3507427 C165.133273,81.0615191 167.096274,82.6909476 169.265819,82.7979302 C170.641096,82.6646134 171.996222,81.9749866 172.975204,80.6796733 C174.15905,78.8231124 175.018808,78.0314406 175.750945,76.2176728 L176.494837,74.1504384 C177.095996,76.0086451 177.717305,77.6989714 178.736589,79.0716414 C180.689515,81.8285026 182.801967,82.4621692 184.3989,82.4736904 L184.979908,82.5461095 C187.547427,82.480274 190.272791,80.3258075 192.094739,77.0949307 C193.031741,75.2910383 193.575806,73.4377692 194.108117,71.3968689 C194.490978,69.42345 195.421263,65.5111759 196.180268,62.5123693 C196.83852,60.9059832 197.966952,58.9753574 198.029083,58.8749583 C198.247381,58.3268778 198.843502,58.1869774 199.053404,58.2100198 C199.459773,58.0668277 199.820805,58.2857307 200.010556,58.6939107 C200.379983,59.1218414 200.329607,60.076456 200.306098,60.4615937 L199.673034,75.1577214 C199.751957,77.1048061 200.240608,79.2559808 201.340494,80.5150845 C202.269099,81.5733901 203.609112,82.2844134 204.787921,82.2235156 C206.356307,82.2037649 207.775243,81.575036 209.036333,79.9735876 C209.694585,79.0815167 210.344441,78.0067523 210.804546,76.9105914 L211.435931,76.0185204 C211.528287,77.7417644 212.028693,79.3218162 212.764189,80.3636629 C213.503044,81.398926 214.456837,81.8894004 215.447574,81.8071061 L215.635646,81.8285026 C215.642363,81.9321935 218.980641,81.2870057 219.973057,79.5324898"
            id="Fill-17"></path>
          <path
            d="M319.686991,40.7422179 L319.626539,71.2092377 C319.626539,75.0309881 319.871704,79.558824 321.525731,81.1783771 L323.3863,82.7798255 L310.164166,82.7798255 L311.709043,81.486158 C313.358032,79.8649591 313.2556,78.9383245 313.289184,77.3730857 L313.282467,39.3168795 L319.686991,40.7422179 Z"
            id="Fill-19"></path>
          <path
            d="M341.569337,27.3749796 C334.577089,30.918575 327.118018,30.0265041 319.724437,28.2571752 C309.155462,25.7290923 298.94248,21.8184641 288.675763,18.3390584 C265.257439,10.399298 241.269861,3.96223279 216.529995,1.65140702 C190.654981,-0.768047314 163.245164,1.33868843 139.472526,12.3249862 C127.995095,17.628035 117.164162,25.4575209 109.51702,35.5204759 C107.653092,37.9662644 105.962123,41.4440243 105.436529,43.4585903 C105.411341,43.5589895 107.522113,44.1136535 107.61447,43.9737531 C107.649734,43.9227306 108.29959,42.1171922 108.702601,41.3666676 C109.594264,39.7059673 110.470814,38.4797812 111.604283,37.2157398 C115.817432,32.5266069 120.153164,28.7509414 125.456123,25.3028075 C145.547923,12.2525671 170.338166,7.83171383 194.070503,7.66877099 C220.764974,7.49101516 247.179017,13.1462839 272.509966,21.0103334 C282.022716,23.9630553 291.384336,27.3288948 300.831596,30.4708936 C309.984994,33.5190769 320.176146,37.4264134 330.036493,36.6907018 C333.112814,36.4602775 336.054797,35.5599772 338.783521,34.175786 C340.021102,33.5519947 340.817049,31.3234633 341.290588,30.1696963 C341.347681,30.0265041 342.432454,26.9388195 341.569337,27.3749796 M107.354192,42.0743991 C107.214817,42.3130528 107.112385,42.4941004 107.354192,42.0743991"
            id="Fill-21"></path>
          <path
            d="M220.409988,91.6827591 C222.853245,94.0676497 225.603798,96.3817673 227.188977,99.4365341 C228.112545,101.212447 228.527311,103.205616 228.586083,105.18891 C228.611271,105.987166 228.460142,107.233102 228.350993,107.756494 C228.221694,108.409912 228.12262,108.727568 228.08064,108.860885 C228.040338,108.989264 227.712892,109.873105 228.018509,109.073204 C227.620535,110.106821 228.134374,108.867468 227.847229,109.48303 C227.410633,110.399789 228.245203,108.744027 227.753193,109.650911 C227.269579,110.542982 228.131016,109.048516 227.586951,109.92742 C227.237674,110.491959 227.229278,110.480438 226.740627,111.127272 C225.885906,112.259642 224.875019,113.275155 223.832227,114.239645 C221.316764,116.5587 218.334479,118.370822 215.264875,119.891621 C206.455717,124.248285 196.383789,125.792127 186.625874,126.213475 C165.818728,127.113775 143.00828,123.425342 126.091874,110.758593 C118.599219,105.144471 112.063717,97.4038633 109.093186,88.5177178 C108.960528,88.1161213 108.831229,87.7095871 108.732155,87.2981153 C108.512178,86.3698348 106.802738,89.1661974 106.727173,89.3044519 C106.131052,90.3940293 104.891792,92.4382213 105.207484,93.7598688 C106.71206,100.11464 111.027641,106.159984 115.383523,110.913306 C127.636751,124.296016 145.921717,130.326547 163.691163,132.360864 C182.365707,134.497225 205.389415,133.93927 220.581268,121.483195 C225.57861,117.389873 229.274561,111.514055 231.106584,105.414397 C232.404617,101.097234 232.221582,98.2284528 229.9177,94.181216 C228.364427,91.4506889 224.364538,89.3834545 222.310859,87.0364192 C220.530892,85.0070402 218.823131,82.5316257 218.666964,78.8003992 C218.623304,77.8375551 217.622492,80.1236925 217.526777,80.2932189 C216.981032,81.2906266 215.570492,80.3771592 215.971825,81.5984076 C215.971825,81.5984076 216.920581,88.28071 220.409988,91.6827591"
            id="Fill-24"></path>
        </g>
      </g>
    </g>
  </g>
</svg>
