<?xml version="1.0" encoding="UTF-8"?>
<svg xmlns:xlink="http://www.w3.org/1999/xlink" width="40px" height="55px" viewBox="0 0 40 55" version="1.1"
     xmlns="http://www.w3.org/2000/svg">
  <!-- Generator: Sketch 42 (36781) - http://www.bohemiancoding.com/sketch -->
  <title>16tons-weight-banner</title>
  <desc>Created with Sketch.</desc>
  <defs></defs>
  <g id="Page-1" stroke="none" stroke-width="1" fill="none" fill-rule="evenodd">
    <g id="header-v2-copy" transform="translate(-1023.000000, -17.000000)" fill="#DB3727">
      <g id="banner" transform="translate(200.000000, 0.000000)">
        <g id="16tons-weight-banner" transform="translate(823.000000, 17.000000)">
          <path
            d="M27.6162034,10.9175564 L27.6162034,13.9721018 C27.4697627,14.2164655 27.3728136,14.4615079 27.2256949,14.7540655 C27.2256949,15.3894109 26.9823051,16.1231806 26.8351864,16.7585261 C26.8351864,17.0028897 27.1280678,17.1488291 27.6162034,17.3931927 L27.6162034,20.717217 C27.3728136,20.9609018 27.2256949,21.3518836 27.2256949,21.7428655 C27.3728136,21.8406109 27.4697627,21.9872291 27.6162034,21.9872291 L27.6162034,47.9386473 C27.4697627,47.6942836 27.4697627,47.5476655 27.4697627,47.3039806 C27.1280678,46.6686352 27.1280678,45.1040291 27.1280678,44.3709382 C26.9823051,43.9799564 26.9823051,42.9536291 26.8351864,42.7099442 C26.4934915,41.9273018 26.5917966,40.6572897 26.4934915,39.92352 L26.3477288,39.7775806 C26.2012881,38.8978715 26.2012881,38.7505745 26.2012881,38.7505745 C26.1029831,38.2618473 25.9558644,37.77312 25.9558644,37.3821382 C25.8595932,37.2361988 25.8595932,37.1384533 25.8595932,36.8445382 C25.5667119,36.5024291 25.7124746,34.8407564 25.7124746,34.8407564 C25.7124746,34.6941382 25.7124746,34.6941382 25.8595932,34.5963927 C25.9558644,34.3031564 25.9558644,33.4234473 25.9558644,33.0324655 L25.8595932,33.0324655 C25.5667119,32.9353988 25.7124746,32.0061382 25.7124746,31.9090715 C25.5667119,31.2730473 25.3219661,30.7354473 25.3219661,30.1007806 L25.3219661,30.0023564 C25.0778983,29.8557382 24.9314576,29.1226473 24.9314576,28.8294109 C24.6873898,27.9497018 24.444,26.9233745 24.2968814,26.0436655 C24.004,24.8713988 25.0290847,23.0624291 24.004,22.9646836 L24.004,14.2164655 C24.004,14.1675927 24.0534915,14.1193988 24.0534915,14.1193988 C24.7362034,11.6750836 24.8345085,9.52468364 24.004,7.56977455 L24.004,4.93064727 C24.3951864,5.46824727 24.6873898,5.95697455 24.6873898,6.10359273 C24.8345085,6.34863515 24.9314576,6.73961697 25.0778983,6.98330182 C25.2250169,6.98330182 25.3219661,8.01030788 25.3219661,8.10737455 L25.3219661,8.25399273 C25.7124746,8.25399273 25.7124746,11.8217018 25.5667119,11.8217018 C25.5667119,12.4577261 25.5667119,12.4577261 25.4690847,13.190817 L25.4690847,13.3367564 C25.4690847,13.8254836 25.4690847,13.8254836 25.3219661,14.1193988 C25.3219661,14.3630836 24.9314576,16.1231806 24.8345085,16.1231806 C24.6873898,16.26912 24.6873898,16.3668655 24.6873898,16.6607806 C24.6873898,17.1488291 24.6873898,17.0028897 25.0778983,16.9044655 L25.2250169,16.7585261 L25.2250169,16.6607806 C25.3219661,16.3668655 25.4690847,16.1231806 25.4690847,15.8781382 C25.5667119,15.4871564 25.5667119,15.4871564 25.7124746,15.3894109 C25.8595932,14.8518109 26.1029831,14.1193988 26.2012881,13.4833745 C26.3477288,13.0923927 26.3477288,12.1644897 26.4934915,11.8217018 C26.4934915,11.2841018 26.5917966,10.7953745 26.5917966,10.4043927 C26.4934915,9.91566545 26.4934915,9.37806545 26.4934915,8.98708364 C26.4934915,8.74272 26.5917966,8.49903515 26.4934915,8.35241697 C26.1029831,8.01030788 26.1029831,7.47270788 25.9558644,6.98330182 C25.8595932,6.59299879 25.8595932,6.44570182 25.8595932,6.10359273 C25.5667119,5.71261091 25.3219661,5.17501091 25.0778983,4.83290182 C24.9314576,4.68628364 24.6873898,4.44259879 24.5897627,4.19755636 C24.444,3.85544727 24.2968814,3.65995636 24.004,3.46514424 L24.004,1.94941091 C24.0534915,1.99828364 24.1511186,1.99828364 24.1985763,2.04783515 C24.2968814,2.19377455 24.5897627,2.34039273 24.5897627,2.43813818 C24.8345085,2.68250182 25.0778983,3.22010182 25.3219661,3.46514424 L25.4690847,3.61108364 C26.2012881,5.07726545 27.1280678,6.10359273 27.4697627,7.86301091 L27.6162034,7.86301091 L27.6162034,7.93665939 L27.6162034,8.01030788 C27.6162034,9.76904727 28.103661,12.0660655 27.6162034,13.9721018 L27.6162034,10.9175564 Z M11.7518644,41.9270303 C10.5810169,42.5630545 11.5084746,39.3863273 11.6054237,38.750303 C11.7518644,38.6532364 11.7518644,38.5066182 11.8501695,38.4088727 C11.9959322,38.4088727 12.1423729,38.0178909 12.1423729,37.8712727 C12.240678,37.6269091 12.3871186,37.2359273 12.6311864,36.9915636 C12.7769492,36.8449455 13.2650847,36.1118545 13.5091525,36.5028364 C13.5091525,38.1156364 13.1186441,39.3863273 12.8745763,40.8036364 C12.8745763,40.9502545 12.7769492,40.9502545 12.7769492,41.0473212 C12.6311864,41.0473212 12.3871186,41.2923636 12.3871186,41.438303 L12.240678,41.5849212 C12.1423729,41.5849212 12.1423729,41.5849212 11.7518644,41.9270303 Z M16.975661,33.1790158 C17.3173559,33.0323976 17.3173559,32.9353309 17.4631186,32.5436703 C17.4631186,30.2466521 16.1946441,31.9090036 16.975661,33.1790158 Z M7.06569492,22.2322715 L7.06569492,26.9233745 C6.67518644,27.3143564 6.13891525,28.4873018 6.67518644,28.8294109 C6.77281356,28.8294109 6.9199322,28.7316655 7.06569492,28.5850473 L7.06569492,38.6528291 C6.28535593,40.0212655 5.65010169,41.2919564 6.77281356,41.4385745 L7.06569492,41.4385745 L7.06569492,44.4693624 C4.86908475,43.8333382 2.2819661,42.8558836 3.40535593,40.6572897 C3.55111864,39.5325382 5.65010169,34.8407564 4.77213559,34.2054109 C4.57620339,34.4504533 3.30772881,39.38592 3.16061017,40.0212655 C0.866372881,43.1002473 4.28332203,44.8596655 7.06569492,45.4950109 L7.06569492,47.3039806 C6.9199322,47.1566836 6.77281356,47.1566836 6.67518644,47.0107442 C6.52942373,46.91232 6.28535593,46.91232 6.04061017,46.91232 C5.25959322,46.5213382 4.42976271,46.0326109 3.55111864,45.7393745 L3.40535593,45.7393745 C3.40535593,45.6416291 1.74501695,45.1040291 1.35450847,45.0069624 L1.35450847,44.8596655 C-0.646169492,44.1272533 -0.0115932203,42.5626473 0.622305085,40.8032291 C0.622305085,40.6572897 0.720610169,40.3145018 0.720610169,40.0212655 C0.720610169,39.92352 0.866372881,39.92352 0.866372881,39.7775806 C1.01281356,39.5325382 1.11111864,39.2881745 1.11111864,39.0444897 C1.25755932,38.6528291 1.35450847,38.2618473 1.64738983,38.0181624 C1.74501695,37.77312 1.74501695,37.3821382 1.74501695,37.1384533 C1.89213559,36.9911564 1.89213559,36.9911564 1.98908475,36.6008533 C2.62366102,35.7204655 3.79518644,33.2768291 3.94230508,32.2993745 C4.18569492,31.6640291 4.57620339,30.3933382 4.86908475,29.7586715 C5.01620339,29.6113745 5.01620339,29.4647564 5.1619661,29.3670109 C5.25959322,27.7053382 6.28535593,26.1902836 6.43111864,24.6263564 C6.52942373,24.0398836 6.67518644,23.25792 6.67518644,22.6225745 C6.77281356,22.6225745 6.77281356,22.4759564 6.77281356,22.4759564 C6.9199322,22.4759564 6.9199322,22.3782109 7.06569492,22.2322715 Z M8.62840678,45.7393745 L8.62840678,47.7438352 C8.57891525,47.6942836 8.48128814,47.6942836 8.43315254,47.6942836 C8.0419661,47.6942836 7.55450847,47.4010473 7.06569492,47.3039806 L7.06569492,45.4950109 C7.55450847,45.6416291 8.0419661,45.6416291 8.43315254,45.6416291 C8.48128814,45.6911806 8.57891525,45.7393745 8.62840678,45.7393745 Z M8.62840678,38.5557624 L8.62840678,44.8596655 C8.18840678,44.76192 7.65145763,44.6159806 7.06569492,44.4693624 L7.06569492,41.4385745 C7.84671186,41.0971442 8.23789831,39.8257745 8.62840678,38.5557624 Z M8.62840678,20.5210473 L8.62840678,23.1119806 C8.13959322,23.5022836 7.89620339,24.1376291 7.79789831,25.018017 C8.0419661,25.7511079 8.28671186,25.018017 8.62840678,24.5774836 L8.62840678,34.1565382 C8.23789831,34.1565382 7.94501695,34.3031564 7.94501695,34.5963927 C8.97010169,35.3294836 7.94501695,37.1384533 7.06569492,38.6528291 L7.06569492,28.5850473 C7.30976271,28.3413624 7.40738983,28.09632 7.70027119,27.8519564 C7.70027119,26.9233745 7.40738983,26.6796897 7.06569492,26.9233745 L7.06569492,22.2322715 C7.164,22.0849745 7.30976271,21.9872291 7.30976271,21.8406109 C7.30976271,21.7428655 7.30976271,21.7428655 7.40738983,21.7428655 C7.65145763,21.4985018 8.33552542,20.8142836 8.62840678,20.5210473 Z M8.62840678,23.1119806 L8.62840678,20.5210473 L8.67722034,20.4721745 C8.97010169,20.3255564 8.97010169,20.3255564 9.06772881,20.179617 C9.31179661,20.0811927 9.45755932,19.9345745 9.604,19.8375079 C9.70230508,19.5435927 9.94569492,19.4458473 10.2392542,19.2014836 L10.2392542,22.4759564 C9.55518644,22.5248291 9.01891525,22.72032 8.62840678,23.1119806 Z M8.62840678,34.1565382 L8.62840678,24.5774836 C8.67722034,24.5774836 8.67722034,24.5286109 8.67722034,24.5286109 C8.82298305,24.0398836 8.97010169,23.8932655 9.45755932,23.5022836 C9.604,23.25792 9.8480678,23.1119806 10.2392542,23.1119806 L10.2392542,34.6941382 C9.79925424,34.3520291 9.11586441,34.1565382 8.62840678,34.1565382 Z M8.62840678,44.8596655 L8.62840678,38.5557624 C9.01891525,37.2850715 9.40942373,36.0137018 10.2392542,35.7204655 L10.2392542,38.5068897 C9.70230508,39.7775806 9.604,41.1948897 10.2392542,42.07392 L10.2392542,45.4950109 C9.94569492,45.3972655 9.70230508,45.2506473 9.45755932,45.1040291 C9.26230508,45.0069624 8.97010169,44.9574109 8.62840678,44.8596655 Z M8.62840678,47.7438352 L8.62840678,45.7393745 C8.92061017,45.83712 9.26230508,45.7882473 9.604,45.8866715 C9.8480678,45.8866715 9.94569492,46.0326109 10.2392542,46.0326109 L10.2392542,48.1830109 C9.94569492,48.1830109 9.70230508,48.1830109 9.604,48.0363927 C9.26230508,47.9386473 8.97010169,47.8409018 8.62840678,47.7438352 Z M11.2155254,46.4724655 L11.2155254,48.5739927 C10.8738305,48.4280533 10.5314576,48.3296291 10.2392542,48.1830109 L10.2392542,46.0326109 C10.5314576,46.1792291 10.8738305,46.3258473 11.2155254,46.4724655 Z M11.2155254,42.7581382 L11.2155254,45.8866715 C10.8738305,45.7393745 10.5314576,45.6416291 10.2392542,45.4950109 L10.2392542,42.07392 C10.483322,42.4160291 10.7762034,42.61152 11.2155254,42.7581382 Z M11.2155254,23.4045382 L11.2155254,36.7956655 C10.8738305,37.2850715 10.483322,37.8708655 10.2392542,38.5068897 L10.2392542,35.7204655 L10.5809492,35.7204655 C10.8738305,35.1828655 10.5809492,34.9385018 10.2392542,34.6941382 L10.2392542,23.1119806 C10.483322,23.1119806 10.8738305,23.25792 10.9707797,23.3556655 C11.0684068,23.3556655 11.1178983,23.4045382 11.2155254,23.4045382 Z M11.2155254,18.41952 L11.2155254,22.5743806 C11.1667119,22.5248291 11.0684068,22.5248291 10.9707797,22.4759564 L10.2392542,22.4759564 L10.2392542,19.2014836 C10.483322,19.2014836 10.5809492,18.8111806 10.8738305,18.8111806 C10.8738305,18.7127564 11.0195932,18.566817 11.2155254,18.41952 Z M11.2155254,22.5743806 L11.2155254,18.41952 C11.4101017,18.2735806 11.6053559,18.1262836 11.7517966,18.0285382 C11.8501017,17.9307927 11.9958644,17.7841745 12.1423051,17.6375564 L12.2406102,17.6375564 L12.2406102,22.867617 C11.9958644,22.72032 11.8501017,22.72032 11.8501017,22.72032 C11.6548475,22.6225745 11.5084068,22.6225745 11.2155254,22.5743806 Z M11.2155254,36.7956655 L11.2155254,23.4045382 C11.5084068,23.5022836 11.8989153,23.6495806 11.9958644,23.7466473 L12.2406102,23.7466473 L12.2406102,28.8294109 C11.7517966,30.3933382 11.5084068,32.5437382 11.8501017,32.9353988 C11.9958644,32.7887806 12.1423051,32.7887806 12.2406102,32.7887806 L12.2406102,35.8182109 C11.8989153,36.0632533 11.5572203,36.4053624 11.2155254,36.7956655 Z M11.2155254,45.8866715 L11.2155254,42.7581382 C11.5084068,42.8558836 11.8006102,42.9047564 12.1423051,42.9536291 L12.2406102,42.9536291 L12.2406102,46.37472 C11.9477288,46.2287806 11.6053559,46.0326109 11.2155254,45.8866715 Z M11.2155254,48.5739927 L11.2155254,46.4724655 C11.4589153,46.5213382 11.6548475,46.6190836 11.8501017,46.6686352 L12.2406102,46.6686352 L12.2406102,48.9649745 C11.9477288,48.8190352 11.6053559,48.6717382 11.2155254,48.5739927 Z M13.0697627,46.91232 L13.0697627,49.3077624 C12.8256949,49.1611442 12.5328136,49.06272 12.2406102,48.9649745 L12.2406102,46.6686352 C12.5328136,46.7168291 12.8256949,46.8145745 13.0697627,46.91232 Z M13.0697627,42.5144533 L13.0697627,46.6686352 C12.8256949,46.5213382 12.5328136,46.4724655 12.2406102,46.37472 L12.2406102,42.9536291 C12.5328136,42.9047564 12.8256949,42.7581382 13.0697627,42.5144533 Z M13.0697627,32.3482473 L13.0697627,35.7693382 C12.8256949,35.7693382 12.5823051,35.7693382 12.2406102,35.8182109 L12.2406102,32.7887806 C12.5823051,32.6903564 12.8745085,32.5437382 13.0697627,32.3482473 Z M13.0697627,24.1871806 L13.0697627,27.0699927 C12.8256949,27.1677382 12.484,27.9015079 12.2406102,28.8294109 L12.2406102,23.7466473 C12.484,23.8932655 12.7768814,23.8932655 12.7768814,24.0398836 C12.8745085,24.0887564 12.9728136,24.1376291 13.0697627,24.1871806 Z M13.0697627,16.6607806 L13.0697627,23.1601745 C12.8256949,23.0624291 12.484,22.9646836 12.2406102,22.867617 L12.2406102,17.6375564 C12.484,17.3931927 12.7768814,17.0028897 13.0216271,16.7585261 C13.0216271,16.7585261 13.0697627,16.7089745 13.0697627,16.6607806 Z M13.0697627,8.49903515 L13.0697627,14.0705261 C13.0697627,13.8254836 13.0216271,13.5329261 13.0216271,13.190817 L13.0216271,11.1863564 C12.924,10.2089018 12.9728136,9.32919273 13.0697627,8.49903515 Z M13.0697627,23.1601745 L13.0697627,16.6607806 C13.1673898,16.5134836 13.1673898,16.3179927 13.2656949,16.1231806 C13.2656949,15.73152 13.2656949,15.3894109 13.1185763,14.8518109 C13.1185763,14.6081261 13.1185763,14.3630836 13.0697627,14.0705261 L13.0697627,8.49903515 C13.1185763,8.35241697 13.1185763,8.15692606 13.1185763,8.01030788 L13.1185763,7.71639273 C13.1185763,7.61932606 13.1185763,7.61932606 13.2656949,7.47270788 L13.2656949,7.22766545 C13.5090847,6.98330182 13.7531525,5.95697455 13.7531525,5.71261091 C13.8995932,5.56599273 13.8995932,5.46824727 13.8995932,5.32230788 L13.8995932,20.9609018 C13.6562034,21.10752 13.5090847,21.2052655 13.8995932,21.7428655 L13.8995932,23.6495806 C13.7531525,23.5022836 13.6562034,23.3556655 13.4114576,23.25792 C13.363322,23.25792 13.2162034,23.2090473 13.0697627,23.1601745 Z M13.0697627,27.0699927 L13.0697627,24.1871806 C13.1673898,24.2842473 13.2656949,24.3337988 13.4114576,24.3826715 C13.5090847,24.5286109 13.7531525,24.5286109 13.8995932,24.6263564 L13.8995932,27.0699927 C13.6562034,26.8263079 13.1185763,26.8263079 13.1185763,27.0699927 L13.0697627,27.0699927 Z M13.0697627,35.7693382 L13.0697627,32.3482473 C13.8995932,31.4685382 13.7050169,29.6602473 13.8995932,28.3413624 L13.8995932,35.8182109 C13.6562034,35.7693382 13.4114576,35.7204655 13.0697627,35.7693382 Z M13.0697627,46.6686352 L13.0697627,42.5144533 C13.4114576,42.2205382 13.7050169,41.8784291 13.8995932,41.4385745 L13.8995932,47.0107442 C13.6562034,46.91232 13.363322,46.7663806 13.0697627,46.6686352 Z M13.0697627,49.3077624 L13.0697627,46.91232 C13.363322,47.0107442 13.6562034,47.1566836 13.8995932,47.3039806 L13.8995932,49.60032 C13.6562034,49.5032533 13.363322,49.4048291 13.0697627,49.3077624 Z M14.8270508,47.7438352 L14.8270508,49.9424291 C14.7789153,49.9424291 14.7301017,49.8942352 14.6806102,49.8453624 C14.3884068,49.8453624 14.143661,49.6987442 13.8995932,49.60032 L13.8995932,47.3039806 C14.2412881,47.4010473 14.4853559,47.4987927 14.8270508,47.7438352 Z M14.8270508,39.38592 L14.8270508,47.3039806 C14.6317966,47.2544291 14.5348475,47.1566836 14.5348475,47.1566836 C14.2901017,47.1566836 14.143661,47.0107442 13.8995932,47.0107442 L13.8995932,41.4385745 C14.3395932,40.9016533 14.6317966,40.1196897 14.8270508,39.38592 Z M14.8270508,24.9202715 L14.8270508,36.8940897 C14.6806102,36.4053624 14.4372203,36.0632533 13.8995932,35.8182109 L13.8995932,28.3413624 C14.0467119,28.09632 14.143661,27.8519564 14.2901017,27.7053382 C14.2901017,27.4609745 14.143661,27.2166109 13.8995932,27.0699927 L13.8995932,24.6263564 C14.143661,24.6263564 14.3884068,24.7729745 14.5348475,24.9202715 L14.6806102,24.9202715 L14.8270508,24.9202715 Z M14.8270508,22.4270836 L14.8270508,24.0887564 C14.5829831,24.0398836 14.3884068,24.0398836 14.2901017,24.0398836 C14.2901017,23.8932655 14.143661,23.7466473 13.8995932,23.6495806 L13.8995932,21.7428655 C14.143661,21.9383564 14.4853559,22.18272 14.8270508,22.4270836 Z M14.8270508,9.86679273 L14.8270508,12.7502836 C14.8270508,12.7020897 14.8270508,12.7020897 14.7789153,12.7020897 C14.6806102,12.5547927 14.7789153,12.1644897 14.7789153,11.9194473 C14.7789153,11.4795927 14.6806102,10.4532655 14.8270508,9.86679273 Z M14.8270508,3.80657455 L14.8270508,6.15246545 C14.8270508,6.20133818 14.8270508,6.20133818 14.7789153,6.20133818 C14.5348475,6.98330182 14.3884068,7.86301091 14.143661,8.64497455 C14.143661,9.52468364 14.143661,9.52468364 14.0467119,9.62242909 C14.0467119,10.4043927 14.143661,11.0397382 14.143661,11.8217018 L14.143661,13.190817 C14.143661,13.8254836 14.2901017,14.2164655 14.5348475,14.8518109 C14.6806102,15.0961745 14.7789153,15.3894109 14.7789153,15.6337745 C14.7789153,15.6833261 14.8270508,15.6833261 14.8270508,15.73152 L14.8270508,21.10752 C14.4853559,21.0586473 14.143661,20.9609018 13.8995932,20.9609018 L13.8995932,5.32230788 C14.143661,4.83290182 14.3884068,4.29530182 14.6806102,4.05093818 C14.6806102,3.90499879 14.7789153,3.90499879 14.7789153,3.80657455 L14.8270508,3.80657455 Z M14.8270508,6.15246545 L14.8270508,3.80657455 C14.8758644,3.75770182 14.924678,3.75770182 14.924678,3.70882909 L14.924678,6.10359273 L14.8270508,6.15246545 Z M14.8270508,12.7502836 L14.8270508,9.86679273 C14.8270508,9.76904727 14.8758644,9.72017455 14.924678,9.62242909 L14.924678,9.52468364 L14.924678,13.0923927 C14.924678,12.9457745 14.924678,12.8487079 14.8270508,12.7502836 Z M14.8270508,21.10752 L14.8270508,15.73152 C14.8758644,15.7803927 14.924678,15.7803927 14.924678,15.8781382 L14.924678,21.10752 L14.8270508,21.10752 Z M14.8270508,24.0887564 L14.8270508,22.4270836 C14.8758644,22.4270836 14.8758644,22.4759564 14.924678,22.4759564 L14.924678,24.1376291 C14.8758644,24.1376291 14.8758644,24.1376291 14.8270508,24.0887564 Z M14.8270508,36.8940897 L14.8270508,24.9202715 L14.924678,24.9202715 L14.924678,37.2361988 C14.8758644,37.1384533 14.8758644,36.9911564 14.8270508,36.8940897 Z M14.8270508,47.3039806 L14.8270508,39.38592 C14.8758644,39.1904291 14.8758644,39.0444897 14.924678,38.8978715 L14.924678,42.5626473 C14.924678,43.1002473 14.7789153,43.4912291 14.924678,43.8333382 L14.924678,47.3039806 L14.8270508,47.3039806 Z M14.8270508,49.9424291 L14.8270508,47.7438352 C14.8758644,47.7438352 14.8758644,47.7920291 14.924678,47.7920291 L14.924678,49.9424291 L14.8270508,49.9424291 Z M16.0473898,48.3791806 L16.0473898,50.4800291 C15.6568814,50.3334109 15.2663729,50.1874715 14.924678,49.9424291 L14.924678,47.7920291 C15.3151864,47.98752 15.6568814,48.1830109 16.0473898,48.3791806 Z M16.0473898,41.0971442 L16.0473898,47.6942836 C15.6087458,47.4987927 15.2175593,47.3521745 14.924678,47.3039806 L14.924678,43.8333382 C15.6568814,44.6159806 15.8528136,42.3671564 16.0473898,41.0971442 Z M16.0473898,24.9202715 L16.0473898,29.7586715 C15.0223051,31.2730473 14.5348475,33.5211927 16.0473898,34.2542836 L16.0473898,37.0400291 C15.9497627,37.1384533 15.804,37.2850715 15.6568814,37.4805624 C15.6568814,39.2881745 15.0223051,40.9498473 14.924678,42.5626473 L14.924678,38.8978715 C15.0223051,38.2618473 15.0223051,37.77312 14.924678,37.2361988 L14.924678,24.9202715 C15.2175593,24.9684655 15.7056949,24.9684655 16.0473898,24.9202715 Z M16.0473898,22.9646836 L16.0473898,24.0887564 C15.7545085,24.0887564 15.3151864,24.1376291 14.924678,24.1376291 L14.924678,22.4759564 L15.0223051,22.4759564 C15.364,22.5743806 15.7056949,22.7698715 16.0473898,22.9646836 Z M16.0473898,6.10359273 L16.0473898,21.4985018 C15.9985763,21.4985018 15.9009492,21.4503079 15.804,21.4503079 C15.5592542,21.3518836 15.3151864,21.2052655 15.1694237,21.2052655 C15.0223051,21.2052655 15.0223051,21.2052655 14.924678,21.10752 L14.924678,15.8781382 C15.0223051,16.0247564 15.0223051,16.1231806 15.1694237,16.26912 L15.3151864,16.5134836 C15.6568814,16.7585261 15.6568814,16.26912 15.6568814,16.1231806 C15.5592542,16.0247564 15.5592542,15.8781382 15.5592542,15.73152 C15.4134915,15.6337745 15.4134915,15.2427927 15.4134915,15.0961745 C15.3151864,14.9984291 15.3151864,14.8518109 15.3151864,14.7540655 C15.1694237,14.1193988 15.0223051,14.1193988 15.0223051,13.5817988 L15.0223051,13.4833745 C14.924678,13.4833745 14.924678,13.190817 14.924678,13.0923927 L14.924678,9.52468364 C14.924678,9.37806545 15.0223051,9.37806545 15.0223051,9.28032 C15.0223051,9.13370182 15.0223051,7.47270788 15.3151864,7.47270788 L15.4134915,7.37428364 C15.6568814,6.83668364 15.6568814,6.83668364 15.804,6.73961697 C15.804,6.64119273 15.9009492,6.39750788 16.0473898,6.10359273 Z M16.0473898,2.48701091 L16.0473898,4.34417455 C15.804,4.58853818 15.6087458,4.88177455 15.4134915,5.17501091 C15.4134915,5.17501091 15.4134915,5.32230788 15.3151864,5.32230788 C15.1694237,5.56599273 15.0223051,5.81035636 14.924678,6.10359273 L14.924678,3.70882909 C15.1694237,3.41559273 15.6087458,2.87799273 16.0473898,2.48701091 Z M16.0473898,4.34417455 L16.0473898,2.48701091 C16.3409492,2.24332606 16.6331525,2.04783515 16.8284068,2.04783515 C16.9755254,1.94941091 17.0724746,1.80279273 17.2195932,1.70572606 L17.2195932,3.31784727 L17.0724746,3.31784727 C16.8284068,3.61108364 16.5850169,3.90499879 16.3409492,4.05093818 C16.243322,4.14868364 16.1456949,4.24710788 16.0473898,4.34417455 Z M16.0473898,21.4985018 L16.0473898,6.10359273 C16.243322,5.76148364 16.4867119,5.32230788 16.5850169,5.32230788 L16.5850169,5.17501091 C16.5850169,4.83290182 16.8284068,4.53966545 17.2195932,4.19755636 L17.2195932,6.98330182 C16.0473898,9.37806545 15.804,12.7020897 16.4378983,14.2164655 C16.6826441,14.4615079 16.9755254,14.7540655 17.2195932,14.8518109 L17.2195932,18.8111806 C16.9755254,18.9089261 16.6826441,19.5435927 16.9755254,19.8375079 C16.9755254,19.8375079 17.0724746,19.8375079 17.2195932,19.9345745 L17.2195932,21.8406109 C16.9755254,21.8406109 16.6826441,21.7428655 16.4378983,21.5962473 C16.3409492,21.5962473 16.243322,21.5473745 16.0473898,21.4985018 Z M16.0473898,29.7586715 L16.0473898,24.9202715 C16.6331525,24.8218473 17.023661,24.6263564 16.3409492,24.1376291 C16.243322,24.0887564 16.1456949,24.0887564 16.0473898,24.0887564 L16.0473898,22.9646836 C16.1456949,23.0135564 16.243322,23.0624291 16.3409492,23.1119806 L16.5850169,23.1119806 C16.8284068,23.25792 16.9755254,23.25792 17.2195932,23.3556655 L17.2195932,28.5850473 C16.7795932,28.8789624 16.3890847,29.2692655 16.0473898,29.7586715 Z M16.0473898,37.0400291 L16.0473898,34.2542836 C16.243322,34.3520291 16.4378983,34.4009018 16.6826441,34.4504533 C16.8284068,34.3031564 16.9755254,34.3031564 17.2195932,34.3031564 L17.2195932,37.4805624 C16.9267119,36.8940897 16.5362034,36.6008533 16.0473898,37.0400291 Z M16.0473898,47.6942836 L16.0473898,41.0971442 C16.243322,40.1678836 16.3890847,39.6791564 16.8284068,41.0475927 C16.9755254,41.5851927 17.0724746,42.3189624 17.2195932,42.9536291 L17.2195932,48.1830109 C16.8284068,47.98752 16.4378983,47.8409018 16.0473898,47.6942836 Z M16.0473898,50.4800291 L16.0473898,48.3791806 C16.4378983,48.5739927 16.8284068,48.7701624 17.2195932,48.9649745 L17.2195932,50.8710109 C16.7795932,50.7250715 16.4378983,50.6266473 16.0473898,50.4800291 Z M18.7809492,41.2430836 L18.7809492,51.2626715 C18.244,51.1160533 17.7070508,50.9687564 17.2195932,50.8710109 L17.2195932,48.9649745 C17.6101017,49.06272 17.9517966,49.3077624 18.3423051,49.3077624 C19.3673898,49.3077624 18.3423051,48.6717382 17.2195932,48.1830109 L17.2195932,42.9536291 C17.3172203,43.7362715 17.6101017,44.3709382 18.0975593,44.4693624 C18.244,44.3709382 18.244,44.3709382 18.244,44.1272533 C18.3423051,43.7362715 18.3423051,43.3452897 18.3423051,42.9536291 C18.3911186,42.7581382 18.5856949,42.0250473 18.7809492,41.2430836 Z M18.7809492,33.5211927 L18.7809492,37.6760533 C18.5856949,37.9692897 18.4392542,39.6791564 17.9517966,39.6791564 C17.8534915,39.1415564 17.6101017,38.1152291 17.2195932,37.4805624 L17.2195932,34.3031564 C17.9517966,34.2054109 18.4887458,33.9610473 18.7809492,33.5211927 Z M18.7809492,23.6495806 L18.7809492,30.5399564 C18.1463729,29.6113745 17.3653559,29.9541624 18.7328136,28.7316655 C18.244,28.1940655 17.7070508,28.3413624 17.2195932,28.5850473 L17.2195932,23.3556655 C17.2195932,23.3556655 17.3172203,23.3556655 17.3172203,23.5022836 L17.4629831,23.5022836 C17.7070508,23.6495806 17.7070508,23.6495806 18.244,23.6495806 L18.7809492,23.6495806 Z M18.7809492,19.8375079 L18.7809492,22.2322715 L18.4887458,22.2322715 C18.0975593,22.0849745 17.6101017,21.9872291 17.2195932,21.8406109 L17.2195932,19.9345745 C17.6589153,19.9345745 18.1951864,19.8857018 18.7809492,19.8375079 Z M18.7809492,15.6337745 L18.7809492,16.4652897 C17.7070508,16.4157382 18.0006102,16.9044655 18.7809492,17.2465745 L18.7809492,18.1751564 L18.7328136,18.1751564 L18.5856949,18.1751564 C17.9517966,18.1751564 17.8534915,18.41952 17.2195932,18.6638836 L17.2195932,18.8111806 L17.2195932,14.8518109 C17.6589153,15.2427927 18.1951864,15.4871564 18.7809492,15.6337745 Z M18.7809492,3.07348364 L18.7809492,4.83290182 C18.1463729,5.32230788 17.5606102,6.10359273 17.2195932,6.98330182 L17.2195932,4.19755636 C17.4629831,3.80657455 17.9517966,3.46514424 18.0975593,3.22010182 C18.1951864,3.17122909 18.4392542,3.07348364 18.7809492,3.07348364 Z M18.7809492,0.874210909 L18.7809492,2.38994424 C18.3911186,2.48701091 18.1463729,2.58543515 17.8534915,2.82912 C17.6101017,3.07348364 17.3172203,3.07348364 17.2195932,3.31784727 L17.2195932,1.70572606 C17.6589153,1.26519273 18.1951864,1.02150788 18.7809492,0.874210909 Z M18.7809492,2.38994424 L18.7809492,0.874210909 C19.3178983,0.727592727 19.8548475,0.67872 20.3917966,0.67872 L20.3917966,2.04783515 C19.8548475,2.19377455 19.5131525,2.19377455 19.123322,2.19377455 C19.123322,2.34039273 18.9762034,2.34039273 18.9762034,2.34039273 C18.9273898,2.34039273 18.8304407,2.34039273 18.7809492,2.38994424 Z M18.7809492,4.83290182 L18.7809492,3.07348364 C19.2202712,2.97573818 19.8067119,2.97573818 20.3917966,2.97573818 L20.3917966,4.29530182 C19.8067119,4.29530182 19.2690847,4.49079273 18.7809492,4.83290182 Z M18.7809492,16.4652897 L18.7809492,15.6337745 C19.3178983,15.7803927 19.8548475,15.8781382 20.3917966,16.0247564 L20.3917966,16.6607806 C19.8548475,16.5134836 19.5131525,16.5134836 19.123322,16.5134836 C18.9762034,16.5134836 18.8785763,16.5134836 18.7809492,16.4652897 Z M18.7809492,18.1751564 L18.7809492,17.2465745 C19.2202712,17.4420655 19.8067119,17.6375564 20.3917966,17.6375564 L20.3917966,18.2735806 C20.2453559,18.2735806 20.1484068,18.1751564 19.8548475,18.1751564 L18.7809492,18.1751564 Z M18.7809492,22.2322715 L18.7809492,19.8375079 C19.3178983,19.7879564 19.8548475,19.7390836 20.3917966,19.6908897 L20.3917966,22.6225745 C19.8548475,22.4759564 19.5131525,22.3782109 18.9762034,22.2322715 L18.7809492,22.2322715 Z M18.7809492,51.2626715 L18.7809492,41.2430836 C19.1714576,39.7280291 19.5131525,37.77312 18.8785763,37.6271806 C18.8304407,37.6271806 18.8304407,37.6271806 18.7809492,37.6760533 L18.7809492,33.5211927 C19.2690847,32.8858473 19.3178983,31.9090715 18.8785763,30.6377018 C18.8304407,30.5888291 18.8304407,30.5399564 18.7809492,30.5399564 L18.7809492,23.6495806 L20.3917966,23.6495806 L20.3917966,25.4089988 C19.123322,25.5549382 19.7578983,25.9465988 20.3917966,26.1902836 L20.3917966,38.7505745 C20.2453559,38.7505745 20.2453559,38.8978715 20.2453559,38.8978715 C20.1484068,39.1415564 20.0012881,39.38592 19.8548475,39.5325382 C19.7578983,39.92352 19.8548475,40.3145018 19.8548475,40.6572897 C20.0012881,41.0475927 20.1484068,41.5851927 20.3917966,42.07392 L20.3917966,45.1040291 C20.2453559,45.1040291 20.1484068,45.0069624 20.0012881,44.8596655 C19.5131525,43.1986715 18.4887458,45.6416291 20.3917966,46.1303564 L20.3917966,51.8484655 C19.8548475,51.6041018 19.3178983,51.4086109 18.7809492,51.2626715 Z M20.8317966,46.1303564 L20.8317966,52.1417018 L20.6365424,52.1417018 L20.6365424,51.9957624 C20.4901017,51.9957624 20.3917966,51.9957624 20.3917966,51.8484655 L20.3917966,46.1303564 L20.4901017,46.1303564 L20.8317966,46.1303564 Z M20.8317966,42.9047564 L20.8317966,45.3490715 C20.684678,45.29952 20.5389153,45.2506473 20.3917966,45.1040291 L20.3917966,42.07392 C20.3917966,42.2205382 20.3917966,42.3189624 20.4901017,42.4649018 C20.5870508,42.5144533 20.7334915,42.6610715 20.8317966,42.9047564 Z M20.8317966,26.3375806 L20.8317966,38.31072 C20.684678,38.4084655 20.5389153,38.5557624 20.3917966,38.7505745 L20.3917966,26.1902836 C20.5389153,26.2391564 20.684678,26.2887079 20.8317966,26.3375806 Z M20.8317966,23.79552 L20.8317966,25.6044897 C20.6365424,25.5060655 20.4901017,25.4578715 20.3917966,25.4089988 L20.3917966,23.6495806 C20.5389153,23.6977745 20.684678,23.7466473 20.8317966,23.79552 Z M20.8317966,19.5924655 L20.8317966,22.7698715 C20.684678,22.72032 20.5389153,22.6714473 20.3917966,22.6225745 L20.3917966,19.6908897 C20.5389153,19.642017 20.684678,19.5924655 20.8317966,19.5924655 Z M20.8317966,17.6375564 L20.8317966,18.6156897 C20.6365424,18.5172655 20.4901017,18.41952 20.4901017,18.41952 C20.3917966,18.41952 20.3917966,18.41952 20.3917966,18.2735806 L20.3917966,17.6375564 L20.8317966,17.6375564 Z M20.8317966,16.0736291 L20.8317966,16.6607806 L20.3917966,16.6607806 L20.3917966,16.0247564 C20.5389153,16.0247564 20.684678,16.0736291 20.8317966,16.0736291 Z M20.8317966,2.97573818 L20.8317966,4.34417455 C20.684678,4.34417455 20.5389153,4.29530182 20.3917966,4.29530182 L20.3917966,2.97573818 L20.8317966,2.97573818 Z M20.8317966,0.727592727 L20.8317966,2.09602909 C20.684678,2.09602909 20.5389153,2.04783515 20.3917966,2.04783515 L20.3917966,0.67872 C20.5389153,0.67872 20.684678,0.67872 20.8317966,0.727592727 Z M20.8317966,45.3490715 C21.6128136,45.4950109 21.2223051,43.7362715 20.8317966,42.9047564 L20.8317966,45.3490715 Z M24.004,33.3745745 L24.004,53.36352 C23.5158644,53.0702836 22.9301017,52.7777261 22.5395932,52.7777261 C22.5395932,52.4838109 21.124,52.3860655 21.124,52.2394473 C21.0263729,52.1417018 21.0263729,52.1417018 20.8317966,52.1417018 L20.8317966,46.1303564 C23.8080678,45.7882473 21.9056949,42.4160291 21.2711186,40.6572897 C21.2711186,40.1678836 20.6365424,38.5068897 21.9056949,39.1415564 C23.4189153,40.6572897 22.4907797,37.0400291 20.8317966,38.31072 L20.8317966,26.3375806 C20.8806102,26.3375806 20.9775593,26.3857745 21.0263729,26.4346473 C21.7585763,26.2391564 21.2711186,25.8481745 20.8317966,25.6044897 L20.8317966,23.79552 C20.9287458,23.79552 21.0263729,23.8450715 21.124,23.8932655 L21.2711186,23.8932655 C21.4168814,24.0398836 21.9056949,24.0398836 21.9056949,24.2842473 C21.9056949,24.3826715 21.9056949,24.3826715 22.0521356,24.3826715 C22.2962034,24.7729745 22.5395932,25.018017 22.6867119,25.5549382 C22.6867119,25.7999806 22.783661,26.1902836 22.9301017,26.4346473 C23.0284068,26.5812655 23.1741695,27.0699927 23.1741695,27.3143564 C23.3212881,27.4609745 23.3212881,27.7053382 23.3212881,27.9497018 C23.4189153,28.09632 23.4189153,28.09632 23.4189153,29.4647564 C23.564678,29.7586715 23.564678,29.7586715 23.6623051,30.4917624 C23.8080678,31.4685382 23.9063729,32.3977988 24.004,33.3745745 Z M24.004,14.2164655 L24.004,22.9646836 C23.8080678,22.9646836 23.5158644,23.0135564 23.1741695,23.1119806 C22.6867119,23.25792 22.0521356,23.3556655 21.5145085,23.1119806 C21.2711186,22.9646836 21.0751864,22.867617 20.8317966,22.7698715 L20.8317966,19.5924655 C21.0751864,19.5435927 21.2711186,19.5435927 21.5145085,19.5435927 C21.9545085,19.3969745 21.2711186,18.8593745 20.8317966,18.6156897 L20.8317966,17.6375564 C21.1734915,17.6375564 21.564,17.5886836 21.9056949,17.3931927 C21.7097627,17.0028897 21.3192542,16.7585261 20.8317966,16.6607806 L20.8317966,16.0736291 C21.3192542,16.1231806 21.8073898,16.1713745 22.2962034,16.3668655 C23.2717966,16.1231806 23.5158644,15.0961745 24.004,14.2164655 Z M24.004,4.93064727 L24.004,7.56977455 C23.6134915,6.64119273 22.9795932,5.76148364 22.1490847,4.93064727 C21.7097627,4.68628364 21.2223051,4.44259879 20.8317966,4.34417455 L20.8317966,2.97573818 C21.8073898,2.97573818 22.783661,3.12303515 22.783661,3.61108364 C22.9301017,3.61108364 23.5158644,4.24710788 24.004,4.93064727 Z M24.004,1.94941091 L24.004,3.46514424 C23.9551864,3.41559273 23.8575593,3.36672 23.8080678,3.31784727 C23.8080678,3.22010182 23.1741695,2.82912 23.1741695,2.82912 C23.0284068,2.68250182 22.9301017,2.68250182 22.783661,2.68250182 C22.0521356,2.38994424 21.5145085,2.14490182 20.8317966,2.09602909 L20.8317966,0.727592727 C21.9056949,0.923083636 23.0284068,1.31474424 24.004,1.94941091 Z M27.6162034,54.6830836 L27.6162034,51.21312 L27.7619661,51.21312 C28.103661,50.5784533 27.7619661,49.06272 27.6162034,47.9386473 L27.6162034,21.9872291 C27.8602712,21.8406109 28.2507797,21.5962473 28.4955254,21.4503079 L28.4955254,54.2921018 C28.3978983,54.3905261 28.103661,54.6830836 27.8602712,54.6830836 L27.6162034,54.6830836 Z M28.4955254,17.7841745 L28.4955254,20.0811927 C28.103661,20.179617 27.8602712,20.4721745 27.6162034,20.717217 L27.6162034,17.3931927 C27.8602712,17.5404897 28.103661,17.6375564 28.4955254,17.7841745 Z M30.9362034,18.566817 L30.9362034,47.4010473 C30.3985763,48.0363927 29.9097627,48.9649745 30.3002712,48.9649745 C30.5456949,48.9649745 30.7890847,48.8190352 30.9362034,48.5739927 L30.9362034,50.9687564 L30.9362034,51.1160533 C30.6419661,51.1160533 28.8853559,53.6567564 28.7395932,54.0477382 C28.6412881,54.0477382 28.4955254,54.1454836 28.4955254,54.2921018 L28.4955254,21.4503079 C30.6419661,20.4721745 29.5206102,19.8375079 28.4955254,20.0811927 L28.4955254,17.7841745 C29.1301017,18.0285382 29.9097627,18.1751564 30.3002712,18.2735806 C30.3985763,18.2735806 30.7890847,18.41952 30.9362034,18.566817 Z M32.0575593,19.2014836 L32.0575593,22.72032 C31.9612881,22.4759564 31.9612881,22.2322715 31.8141695,22.0849745 C30.7890847,21.7428655 31.423661,23.6495806 32.0575593,25.018017 L32.0575593,49.8453624 C31.5707797,50.2363442 31.0331525,50.8710109 30.9362034,50.9687564 L30.9362034,48.5739927 C31.423661,48.1830109 31.6684068,47.6942836 31.8141695,47.1566836 C31.5707797,47.0107442 31.3267119,47.1566836 30.9362034,47.4010473 L30.9362034,18.566817 L31.0331525,18.566817 C31.1795932,18.6638836 31.3267119,18.6638836 31.423661,18.6638836 C31.423661,18.8111806 31.8141695,19.0548655 32.0575593,19.2014836 Z M35.2317966,27.0699927 L35.2317966,33.2768291 C35.1334915,32.7887806 34.8412881,32.3977988 34.8412881,33.4234473 C34.9870508,33.5700655 35.1334915,34.0587927 35.2317966,34.4504533 L35.2317966,43.1002473 L35.2317966,43.4912291 L35.2317966,46.37472 C35.2317966,46.5213382 35.2317966,46.6686352 35.1334915,46.6686352 C34.9870508,46.6686352 34.7429831,47.0107442 34.7429831,47.1566836 C34.5972203,47.3039806 34.1090847,47.6942836 34.1090847,47.7920291 C33.7185763,48.1830109 33.2297627,48.8190352 32.6934915,49.2093382 C32.6934915,49.2093382 32.4494237,49.4543806 32.0575593,49.8453624 L32.0575593,25.018017 C32.3029831,25.5549382 32.5951864,26.0436655 32.8406102,26.1902836 C33.084,26.0436655 32.4494237,23.8932655 32.0575593,22.72032 L32.0575593,19.2014836 C32.204678,19.2014836 32.204678,19.2999079 32.3029831,19.2999079 C32.5951864,19.5435927 32.9368814,20.3255564 33.2297627,20.4721745 C33.2297627,20.5705988 33.2297627,20.717217 33.3273898,20.717217 C33.3273898,21.4503079 33.9619661,24.6263564 34.5972203,25.018017 C34.5972203,25.3105745 35.1334915,26.6796897 35.2317966,26.6796897 L35.2317966,27.0699927 Z M24.004,53.36352 L24.004,33.3745745 C24.004,33.5700655 24.0534915,33.7655564 24.0534915,33.9121745 C24.0534915,34.0587927 24.0534915,34.0587927 24.2968814,34.5963927 C24.2968814,34.9385018 24.444,35.1828655 24.444,35.4761018 C24.444,35.8182109 24.444,36.2098715 24.5897627,36.6008533 L24.5897627,37.2361988 C24.6873898,38.6528291 24.6873898,40.0212655 24.8345085,41.2919564 C24.8345085,41.6829382 24.9314576,42.3189624 24.9314576,42.7099442 C25.0778983,43.1002473 24.9314576,43.4912291 24.9314576,43.8333382 C24.9314576,43.9799564 24.9314576,43.9799564 25.0778983,43.9799564 C25.0778983,44.3709382 25.0778983,44.3709382 25.2250169,45.1040291 C25.2250169,45.3972655 25.2250169,45.3972655 25.3219661,45.4950109 C25.4690847,45.8866715 25.4690847,46.2769745 25.4690847,46.6686352 C25.5667119,46.7663806 25.5667119,46.7663806 25.5667119,46.91232 C25.5667119,47.1566836 25.7124746,47.4010473 25.7124746,47.6942836 L25.7124746,47.7920291 C25.8595932,48.0363927 25.7124746,48.3296291 25.8595932,48.6717382 C25.8595932,48.8190352 25.9558644,49.06272 25.9558644,49.3077624 C26.4934915,50.3334109 25.9558644,52.1417018 27.6162034,51.21312 L27.6162034,54.6830836 C26.4934915,54.2921018 25.4690847,53.7545018 24.2968814,53.5101382 C24.1985763,53.4612655 24.1023051,53.4130715 24.004,53.36352 Z M39.1856949,38.7505745 C39.1856949,39.38592 40.3070508,40.6572897 39.1856949,41.4385745 C39.1856949,41.4385745 39.0385763,41.8295564 38.9423051,41.9273018 L38.9423051,42.07392 C38.7951864,42.07392 38.5511186,42.3189624 38.5511186,42.5626473 C38.404678,42.7099442 37.9158644,43.3452897 37.9158644,43.5896533 C37.7701017,43.5896533 37.7701017,43.5896533 37.6724746,43.7362715 C37.3795932,43.7362715 37.1348475,44.22432 37.1348475,44.4693624 C37.0378983,44.4693624 37.0378983,44.4693624 36.743661,44.8596655 C36.5002712,45.1040291 36.4019661,45.3972655 36.1097627,45.6416291 C36.0114576,45.6416291 35.7680678,46.1303564 35.6223051,46.1303564 C35.4751864,46.1303564 35.3775593,46.2769745 35.2317966,46.37472 L35.2317966,43.4912291 L35.3775593,43.4912291 C36.0114576,43.1986715 36.4019661,42.5626473 36.4019661,41.9273018 C36.0114576,41.8295564 35.4751864,42.5626473 35.2317966,43.1002473 L35.2317966,34.4504533 C35.4751864,35.0857988 35.7680678,35.5738473 35.7680678,34.3031564 C35.6223051,34.3031564 35.4751864,33.8144291 35.2317966,33.2768291 L35.2317966,27.0699927 C35.3775593,27.2166109 35.3775593,27.3143564 35.3775593,27.5593988 C35.4751864,27.8519564 35.4751864,27.9497018 35.6223051,28.1940655 C35.6223051,28.3413624 35.7680678,28.7316655 35.8656949,28.8294109 C35.8656949,29.1226473 36.0114576,29.2203927 36.0114576,29.3670109 C36.1097627,29.6113745 36.2568814,30.24672 36.5002712,30.3933382 C36.5002712,30.8820655 37.5253559,34.2054109 37.7701017,34.4504533 C37.7701017,34.6941382 38.1592542,35.8182109 38.3063729,36.1114473 C38.3063729,36.2098715 38.5511186,36.8445382 38.6480678,36.8445382 C38.6480678,37.1384533 38.6480678,37.1384533 38.7951864,37.2361988 C38.7951864,37.77312 39.1856949,38.2618473 39.1856949,38.7505745 Z"
            id="Combined-Shape"></path>
        </g>
      </g>
    </g>
  </g>
</svg>
